<mxfile host="app.diagrams.net" modified="2023-05-27T02:32:50.619Z" agent="Mozilla/5.0 (Windows NT 10.0; Win64; x64) AppleWebKit/537.36 (KHTML, like Gecko) Chrome/112.0.0.0 Safari/537.36 OPR/98.0.0.0" etag="LcN2zOLpWcGf1ipBgPJH" version="21.1.5" type="device">
  <diagram name="Página-1" id="XqtbUJj331e3MDWw30Fi">
    <mxGraphModel dx="875" dy="1051" grid="1" gridSize="10" guides="1" tooltips="1" connect="1" arrows="1" fold="1" page="1" pageScale="1" pageWidth="827" pageHeight="1169" math="0" shadow="0">
      <root>
        <mxCell id="0" />
        <mxCell id="1" parent="0" />
        <mxCell id="3C48xVCyg6ZmQN1iGgvR-2" value="Animal" style="swimlane;fontStyle=1;align=center;verticalAlign=top;childLayout=stackLayout;horizontal=1;startSize=26;horizontalStack=0;resizeParent=1;resizeParentMax=0;resizeLast=0;collapsible=1;marginBottom=0;whiteSpace=wrap;html=1;" parent="1" vertex="1">
          <mxGeometry x="10" y="212" width="270" height="420" as="geometry">
            <mxRectangle y="280" width="100" height="30" as="alternateBounds" />
          </mxGeometry>
        </mxCell>
        <mxCell id="3C48xVCyg6ZmQN1iGgvR-3" value="# id&lt;br&gt;# nombre&lt;br&gt;# especie&lt;br&gt;# habitatPertenece&lt;br&gt;# dieta&lt;br&gt;# horasDormir&lt;br&gt;# verificadorJugar" style="text;strokeColor=none;fillColor=none;align=left;verticalAlign=top;spacingLeft=4;spacingRight=4;overflow=hidden;rotatable=0;points=[[0,0.5],[1,0.5]];portConstraint=eastwest;whiteSpace=wrap;html=1;" parent="3C48xVCyg6ZmQN1iGgvR-2" vertex="1">
          <mxGeometry y="26" width="270" height="144" as="geometry" />
        </mxCell>
        <mxCell id="3C48xVCyg6ZmQN1iGgvR-4" value="" style="line;strokeWidth=1;fillColor=none;align=left;verticalAlign=middle;spacingTop=-1;spacingLeft=3;spacingRight=3;rotatable=0;labelPosition=right;points=[];portConstraint=eastwest;strokeColor=inherit;" parent="3C48xVCyg6ZmQN1iGgvR-2" vertex="1">
          <mxGeometry y="170" width="270" height="8" as="geometry" />
        </mxCell>
        <mxCell id="3C48xVCyg6ZmQN1iGgvR-5" value="+ getId()&lt;br&gt;+ setId(id)&lt;br&gt;+ getNombre()&lt;br&gt;+ getHabitatPertenece()&lt;br&gt;+ getEspecie()&lt;br&gt;+ getAlimentacion()&lt;br&gt;+ getHorasDormir()&lt;br&gt;+ jugar()&lt;br&gt;+ dormir()&lt;br&gt;+ comer()" style="text;strokeColor=none;fillColor=none;align=left;verticalAlign=top;spacingLeft=4;spacingRight=4;overflow=hidden;rotatable=0;points=[[0,0.5],[1,0.5]];portConstraint=eastwest;whiteSpace=wrap;html=1;" parent="3C48xVCyg6ZmQN1iGgvR-2" vertex="1">
          <mxGeometry y="178" width="270" height="242" as="geometry" />
        </mxCell>
        <mxCell id="3C48xVCyg6ZmQN1iGgvR-6" value="Sistema" style="swimlane;fontStyle=1;align=center;verticalAlign=top;childLayout=stackLayout;horizontal=1;startSize=30;horizontalStack=0;resizeParent=1;resizeParentMax=0;resizeLast=0;collapsible=1;marginBottom=0;whiteSpace=wrap;html=1;" parent="1" vertex="1">
          <mxGeometry x="850" y="210" width="310" height="290" as="geometry" />
        </mxCell>
        <mxCell id="3C48xVCyg6ZmQN1iGgvR-7" value="# contHabitats&lt;br&gt;# contAnimales&lt;br&gt;# arrayAnimalesTotal&lt;br&gt;# arrayHabitats&lt;br&gt;# animalesHabitat&lt;br&gt;" style="text;strokeColor=none;fillColor=none;align=left;verticalAlign=top;spacingLeft=4;spacingRight=4;overflow=hidden;rotatable=0;points=[[0,0.5],[1,0.5]];portConstraint=eastwest;whiteSpace=wrap;html=1;" parent="3C48xVCyg6ZmQN1iGgvR-6" vertex="1">
          <mxGeometry y="30" width="310" height="80" as="geometry" />
        </mxCell>
        <mxCell id="3C48xVCyg6ZmQN1iGgvR-8" value="" style="line;strokeWidth=1;fillColor=none;align=left;verticalAlign=middle;spacingTop=-1;spacingLeft=3;spacingRight=3;rotatable=0;labelPosition=right;points=[];portConstraint=eastwest;strokeColor=inherit;" parent="3C48xVCyg6ZmQN1iGgvR-6" vertex="1">
          <mxGeometry y="110" width="310" height="8" as="geometry" />
        </mxCell>
        <mxCell id="3C48xVCyg6ZmQN1iGgvR-9" value="+ agregarHabitat(habitat)&lt;br&gt;+ añadirAnimalHabitat(habitatEscogido, pTempAnimal)&lt;br&gt;+ getHabitats()&lt;br&gt;+ getContHabitats()&lt;br&gt;+ setContHabs()" style="text;strokeColor=none;fillColor=none;align=left;verticalAlign=top;spacingLeft=4;spacingRight=4;overflow=hidden;rotatable=0;points=[[0,0.5],[1,0.5]];portConstraint=eastwest;whiteSpace=wrap;html=1;" parent="3C48xVCyg6ZmQN1iGgvR-6" vertex="1">
          <mxGeometry y="118" width="310" height="172" as="geometry" />
        </mxCell>
        <mxCell id="3C48xVCyg6ZmQN1iGgvR-12" value="Habitat" style="swimlane;fontStyle=1;align=center;verticalAlign=top;childLayout=stackLayout;horizontal=1;startSize=26;horizontalStack=0;resizeParent=1;resizeParentMax=0;resizeLast=0;collapsible=1;marginBottom=0;whiteSpace=wrap;html=1;" parent="1" vertex="1">
          <mxGeometry x="440" y="230" width="270" height="250" as="geometry" />
        </mxCell>
        <mxCell id="3C48xVCyg6ZmQN1iGgvR-13" value="# id&amp;nbsp;&lt;br&gt;# tipoHabitat&lt;br&gt;# contAnimal&lt;br&gt;# arrayAnimales&lt;br&gt;# cupo" style="text;strokeColor=none;fillColor=none;align=left;verticalAlign=top;spacingLeft=4;spacingRight=4;overflow=hidden;rotatable=0;points=[[0,0.5],[1,0.5]];portConstraint=eastwest;whiteSpace=wrap;html=1;" parent="3C48xVCyg6ZmQN1iGgvR-12" vertex="1">
          <mxGeometry y="26" width="270" height="84" as="geometry" />
        </mxCell>
        <mxCell id="3C48xVCyg6ZmQN1iGgvR-14" value="" style="line;strokeWidth=1;fillColor=none;align=left;verticalAlign=middle;spacingTop=-1;spacingLeft=3;spacingRight=3;rotatable=0;labelPosition=right;points=[];portConstraint=eastwest;strokeColor=inherit;" parent="3C48xVCyg6ZmQN1iGgvR-12" vertex="1">
          <mxGeometry y="110" width="270" height="8" as="geometry" />
        </mxCell>
        <mxCell id="3C48xVCyg6ZmQN1iGgvR-15" value="+ agregarAnimal(animal)&lt;br&gt;+ getAnimales()&lt;br&gt;+ setId(id)&lt;br&gt;+ getId()&lt;br&gt;+ getContAnimal()&lt;br&gt;+ getTipo()&lt;br&gt;+ getCupo()&lt;br&gt;+ listarAnimales()" style="text;strokeColor=none;fillColor=none;align=left;verticalAlign=top;spacingLeft=4;spacingRight=4;overflow=hidden;rotatable=0;points=[[0,0.5],[1,0.5]];portConstraint=eastwest;whiteSpace=wrap;html=1;" parent="3C48xVCyg6ZmQN1iGgvR-12" vertex="1">
          <mxGeometry y="118" width="270" height="132" as="geometry" />
        </mxCell>
        <mxCell id="3C48xVCyg6ZmQN1iGgvR-19" value="" style="endArrow=diamondThin;endFill=0;endSize=24;html=1;rounded=0;" parent="1" edge="1">
          <mxGeometry width="160" relative="1" as="geometry">
            <mxPoint x="440" y="314" as="sourcePoint" />
            <mxPoint x="280" y="314" as="targetPoint" />
          </mxGeometry>
        </mxCell>
        <mxCell id="3C48xVCyg6ZmQN1iGgvR-20" value="" style="endArrow=diamondThin;endFill=0;endSize=24;html=1;rounded=0;exitX=0;exitY=0.925;exitDx=0;exitDy=0;exitPerimeter=0;" parent="1" source="3C48xVCyg6ZmQN1iGgvR-7" edge="1">
          <mxGeometry width="160" relative="1" as="geometry">
            <mxPoint x="850" y="320" as="sourcePoint" />
            <mxPoint x="710" y="314" as="targetPoint" />
          </mxGeometry>
        </mxCell>
        <mxCell id="3C48xVCyg6ZmQN1iGgvR-21" value="" style="endArrow=diamondThin;endFill=0;endSize=24;html=1;rounded=0;entryX=0.5;entryY=0;entryDx=0;entryDy=0;exitX=0.484;exitY=0;exitDx=0;exitDy=0;exitPerimeter=0;" parent="1" source="3C48xVCyg6ZmQN1iGgvR-6" target="3C48xVCyg6ZmQN1iGgvR-2" edge="1">
          <mxGeometry width="160" relative="1" as="geometry">
            <mxPoint x="1000" y="200" as="sourcePoint" />
            <mxPoint x="410" y="140" as="targetPoint" />
            <Array as="points">
              <mxPoint x="1000" y="120" />
              <mxPoint x="145" y="120" />
            </Array>
          </mxGeometry>
        </mxCell>
        <mxCell id="Lbmp43f6gQ4Pv7sz4qLN-1" value="sistemaController" style="swimlane;fontStyle=1;align=center;verticalAlign=top;childLayout=stackLayout;horizontal=1;startSize=30;horizontalStack=0;resizeParent=1;resizeParentMax=0;resizeLast=0;collapsible=1;marginBottom=0;whiteSpace=wrap;html=1;" vertex="1" parent="1">
          <mxGeometry x="580" y="670" width="290" height="280" as="geometry" />
        </mxCell>
        <mxCell id="Lbmp43f6gQ4Pv7sz4qLN-2" value="+ modeloSis&lt;br&gt;+ modeloSisSt&lt;br&gt;+ vista" style="text;strokeColor=none;fillColor=none;align=left;verticalAlign=top;spacingLeft=4;spacingRight=4;overflow=hidden;rotatable=0;points=[[0,0.5],[1,0.5]];portConstraint=eastwest;whiteSpace=wrap;html=1;" vertex="1" parent="Lbmp43f6gQ4Pv7sz4qLN-1">
          <mxGeometry y="30" width="290" height="70" as="geometry" />
        </mxCell>
        <mxCell id="Lbmp43f6gQ4Pv7sz4qLN-3" value="" style="line;strokeWidth=1;fillColor=none;align=left;verticalAlign=middle;spacingTop=-1;spacingLeft=3;spacingRight=3;rotatable=0;labelPosition=right;points=[];portConstraint=eastwest;strokeColor=inherit;" vertex="1" parent="Lbmp43f6gQ4Pv7sz4qLN-1">
          <mxGeometry y="100" width="290" height="8" as="geometry" />
        </mxCell>
        <mxCell id="Lbmp43f6gQ4Pv7sz4qLN-4" value="+ menuInicial(opc)" style="text;strokeColor=none;fillColor=none;align=left;verticalAlign=top;spacingLeft=4;spacingRight=4;overflow=hidden;rotatable=0;points=[[0,0.5],[1,0.5]];portConstraint=eastwest;whiteSpace=wrap;html=1;" vertex="1" parent="Lbmp43f6gQ4Pv7sz4qLN-1">
          <mxGeometry y="108" width="290" height="172" as="geometry" />
        </mxCell>
        <mxCell id="Lbmp43f6gQ4Pv7sz4qLN-5" value="sistemaView" style="swimlane;fontStyle=1;align=center;verticalAlign=top;childLayout=stackLayout;horizontal=1;startSize=30;horizontalStack=0;resizeParent=1;resizeParentMax=0;resizeLast=0;collapsible=1;marginBottom=0;whiteSpace=wrap;html=1;" vertex="1" parent="1">
          <mxGeometry x="1050" y="670" width="290" height="280" as="geometry" />
        </mxCell>
        <mxCell id="Lbmp43f6gQ4Pv7sz4qLN-6" value="+ modeloSis&lt;br&gt;+ modeloSisSt&lt;br&gt;+ controller" style="text;strokeColor=none;fillColor=none;align=left;verticalAlign=top;spacingLeft=4;spacingRight=4;overflow=hidden;rotatable=0;points=[[0,0.5],[1,0.5]];portConstraint=eastwest;whiteSpace=wrap;html=1;" vertex="1" parent="Lbmp43f6gQ4Pv7sz4qLN-5">
          <mxGeometry y="30" width="290" height="70" as="geometry" />
        </mxCell>
        <mxCell id="Lbmp43f6gQ4Pv7sz4qLN-7" value="" style="line;strokeWidth=1;fillColor=none;align=left;verticalAlign=middle;spacingTop=-1;spacingLeft=3;spacingRight=3;rotatable=0;labelPosition=right;points=[];portConstraint=eastwest;strokeColor=inherit;" vertex="1" parent="Lbmp43f6gQ4Pv7sz4qLN-5">
          <mxGeometry y="100" width="290" height="8" as="geometry" />
        </mxCell>
        <mxCell id="Lbmp43f6gQ4Pv7sz4qLN-8" value="+ imprimirError(string)&lt;br&gt;+ imprimirNoError(string)&lt;br&gt;+ menu()&lt;br&gt;+ añadirHabitat()&lt;br&gt;+ mostrarHabitats()&lt;br&gt;+ elegirAnimal()&lt;br&gt;+ crearAnimal()&lt;br&gt;+ obtenerInfo()" style="text;strokeColor=none;fillColor=none;align=left;verticalAlign=top;spacingLeft=4;spacingRight=4;overflow=hidden;rotatable=0;points=[[0,0.5],[1,0.5]];portConstraint=eastwest;whiteSpace=wrap;html=1;" vertex="1" parent="Lbmp43f6gQ4Pv7sz4qLN-5">
          <mxGeometry y="108" width="290" height="172" as="geometry" />
        </mxCell>
        <mxCell id="Lbmp43f6gQ4Pv7sz4qLN-14" value="" style="endArrow=diamondThin;endFill=0;endSize=24;html=1;rounded=0;exitX=0.484;exitY=1.005;exitDx=0;exitDy=0;exitPerimeter=0;entryX=1.014;entryY=1.024;entryDx=0;entryDy=0;entryPerimeter=0;" edge="1" parent="1" source="3C48xVCyg6ZmQN1iGgvR-9" target="3C48xVCyg6ZmQN1iGgvR-3">
          <mxGeometry width="160" relative="1" as="geometry">
            <mxPoint x="800" y="530" as="sourcePoint" />
            <mxPoint x="265.52942612591914" y="330" as="targetPoint" />
            <Array as="points">
              <mxPoint x="1000" y="560" />
              <mxPoint x="360" y="560" />
              <mxPoint x="360" y="385" />
            </Array>
          </mxGeometry>
        </mxCell>
        <mxCell id="Lbmp43f6gQ4Pv7sz4qLN-15" value="" style="endArrow=diamondThin;endFill=0;endSize=24;html=1;rounded=0;exitX=1;exitY=1.008;exitDx=0;exitDy=0;exitPerimeter=0;" edge="1" parent="1" source="Lbmp43f6gQ4Pv7sz4qLN-6">
          <mxGeometry width="160" relative="1" as="geometry">
            <mxPoint x="1430" y="780" as="sourcePoint" />
            <mxPoint x="1160" y="320" as="targetPoint" />
            <Array as="points">
              <mxPoint x="1440" y="771" />
              <mxPoint x="1440" y="570" />
              <mxPoint x="1440" y="320" />
            </Array>
          </mxGeometry>
        </mxCell>
        <mxCell id="Lbmp43f6gQ4Pv7sz4qLN-16" value="" style="endArrow=diamondThin;endFill=0;endSize=24;html=1;rounded=0;exitX=0.479;exitY=-0.011;exitDx=0;exitDy=0;exitPerimeter=0;" edge="1" parent="1" source="Lbmp43f6gQ4Pv7sz4qLN-1">
          <mxGeometry width="160" relative="1" as="geometry">
            <mxPoint x="490" y="700" as="sourcePoint" />
            <mxPoint x="1160" y="400" as="targetPoint" />
            <Array as="points">
              <mxPoint x="719" y="600" />
              <mxPoint x="1000" y="600" />
              <mxPoint x="1240" y="600" />
              <mxPoint x="1240" y="400" />
            </Array>
          </mxGeometry>
        </mxCell>
        <mxCell id="Lbmp43f6gQ4Pv7sz4qLN-17" value="" style="endArrow=diamondThin;endFill=0;endSize=24;html=1;rounded=0;exitX=1;exitY=0.5;exitDx=0;exitDy=0;entryX=0;entryY=0.5;entryDx=0;entryDy=0;" edge="1" parent="1" source="Lbmp43f6gQ4Pv7sz4qLN-2" target="Lbmp43f6gQ4Pv7sz4qLN-6">
          <mxGeometry width="160" relative="1" as="geometry">
            <mxPoint x="930" y="670" as="sourcePoint" />
            <mxPoint x="1090" y="670" as="targetPoint" />
          </mxGeometry>
        </mxCell>
        <mxCell id="Lbmp43f6gQ4Pv7sz4qLN-18" value="" style="endArrow=diamondThin;endFill=0;endSize=24;html=1;rounded=0;exitX=-0.006;exitY=0.042;exitDx=0;exitDy=0;exitPerimeter=0;entryX=1;entryY=0.042;entryDx=0;entryDy=0;entryPerimeter=0;" edge="1" parent="1" source="Lbmp43f6gQ4Pv7sz4qLN-7" target="Lbmp43f6gQ4Pv7sz4qLN-3">
          <mxGeometry width="160" relative="1" as="geometry">
            <mxPoint x="930" y="670" as="sourcePoint" />
            <mxPoint x="1090" y="670" as="targetPoint" />
          </mxGeometry>
        </mxCell>
      </root>
    </mxGraphModel>
  </diagram>
</mxfile>
